<?xml version="1.0" encoding="UTF-8"?>
<svg version="1.1" xmlns="http://www.w3.org/2000/svg" width="212" height="212">
<path d="M0 0 C19.90285152 15.3314522 32.76490154 36.47768582 36.70898438 61.33081055 C39.70550056 85.5704861 33.58067778 110.09834999 18.58398438 129.51831055 C17.23182841 131.10062072 15.85634209 132.66327281 14.45898438 134.20581055 C13.73324219 135.02436523 13.0075 135.84291992 12.25976562 136.6862793 C-3.2391368 153.20990255 -24.94289347 163.46170696 -47.58398438 164.58862305 C-74.18720344 165.33278321 -97.70423675 157.90751664 -117.34472656 139.49536133 C-132.98608929 124.19631799 -144.15902582 102.33428381 -144.84179688 80.25268555 C-144.86127673 78.15381397 -144.86475016 76.05474245 -144.85351562 73.95581055 C-144.84787598 72.85188965 -144.84223633 71.74796875 -144.83642578 70.6105957 C-144.45440086 44.90145326 -133.37405474 24.09240234 -115.54101562 6.20581055 C-114.909375 5.5509668 -114.27773437 4.89612305 -113.62695312 4.22143555 C-83.71921746 -24.50053086 -32.33563816 -23.59246716 0 0 Z M-116.41210938 22.48706055 C-129.97875684 39.81254061 -136.43170052 61.21292727 -133.91601562 83.14331055 C-130.96870103 105.08531301 -119.93563493 124.53684729 -102.54101562 138.20581055 C-84.26564232 151.2361282 -63.18062615 155.73684705 -41.05175781 152.88500977 C-32.0549377 151.33402884 -23.59244577 148.53727613 -15.54101562 144.20581055 C-14.72632813 143.7881543 -13.91164063 143.37049805 -13.07226562 142.94018555 C4.93168524 133.02661767 18.08882041 115.4835787 23.77929688 95.8815918 C29.56137865 73.84691108 26.80627641 52.71475773 15.50585938 32.97485352 C3.99204662 13.51844325 -14.02021615 1.05327913 -35.79101562 -4.54418945 C-66.59525343 -10.61118297 -95.83277177 -1.36877267 -116.41210938 22.48706055 Z " fill="#136AB9" transform="translate(159.541015625,32.794189453125)"/>
<path d="M0 0 C0.74979126 0.338535 1.49958252 0.67707001 2.27209473 1.02586365 C4.65677938 2.10619384 7.031475 3.20667684 9.40625 4.30859375 C10.96811166 5.0215823 12.53060813 5.73318194 14.09375 6.44335938 C16.4168214 7.498906 18.73835706 8.55712357 21.05493164 9.62686157 C24.86418292 11.38338234 28.68346547 13.0881908 32.55859375 14.69482422 C33.6649115 15.15827492 33.6649115 15.15827492 34.7935791 15.63108826 C36.18531231 16.21035966 37.58155708 16.77895095 38.98278809 17.33485413 C41.83737308 18.52923426 43.62448189 19.3140014 45.34179688 21.94750977 C45.52806641 22.54104248 45.71433594 23.1345752 45.90625 23.74609375 C43.24317973 26.91244017 40.0625571 28.27364812 36.3515625 30.00390625 C35.70177429 30.30871918 35.05198608 30.6135321 34.38250732 30.92758179 C32.26879492 31.91619296 30.15050817 32.89443312 28.03125 33.87109375 C26.57698066 34.54491105 25.12271636 35.21873923 23.66845703 35.89257812 C20.07757355 37.55240567 16.48136882 39.2003131 12.88256836 40.84289551 C11.06664127 41.67279325 9.25293657 42.50754937 7.43945312 43.34277344 C4.56132101 44.66259485 1.67453252 45.95989575 -1.21875 47.24609375 C-2.04487793 47.62523926 -2.87100586 48.00438477 -3.72216797 48.39501953 C-4.48674316 48.72743652 -5.25131836 49.05985352 -6.0390625 49.40234375 C-6.68375488 49.68916016 -7.32844727 49.97597656 -7.99267578 50.27148438 C-18.77925568 52.7080532 -33.92366471 42.15042997 -43.62304688 37.69775391 C-45.98459102 36.61382284 -48.3476496 35.53324812 -50.7109375 34.453125 C-52.23185988 33.75670486 -53.75269634 33.06009702 -55.2734375 32.36328125 C-56.31889236 31.88506424 -56.31889236 31.88506424 -57.38546753 31.39718628 C-59.29192716 30.52119988 -61.19336065 29.63515617 -63.09375 28.74609375 C-64.79362061 27.95936279 -64.79362061 27.95936279 -66.52783203 27.15673828 C-69.09375 25.74609375 -69.09375 25.74609375 -69.96875 23.55859375 C-70.01 22.96046875 -70.05125 22.36234375 -70.09375 21.74609375 C-66.0349897 19.18418817 -61.80415293 17.1432145 -57.44140625 15.1640625 C-56.33653114 14.65906975 -56.33653114 14.65906975 -55.20933533 14.14387512 C-53.65085985 13.43231784 -52.09172747 12.72219778 -50.53198242 12.01342773 C-48.19355935 10.95055185 -45.8573613 9.88291106 -43.52148438 8.81445312 C-39.76162744 7.09694444 -35.99335271 5.39891614 -32.22149658 3.70794678 C-30.18187233 2.78592967 -28.15282247 1.84356015 -26.12451172 0.89697266 C-24.90491152 0.34213746 -23.68503838 -0.2120983 -22.46484375 -0.765625 C-21.42126709 -1.24862061 -20.37769043 -1.73161621 -19.30249023 -2.22924805 C-11.93547947 -4.58178127 -6.71579772 -3.16524289 0 0 Z " fill="#0F6AB9" transform="translate(118.09375,67.25390625)"/>
<path d="M0 0 C4.05395613 1.28417709 7.86026683 2.78417018 11.703125 4.6015625 C12.76660156 5.09140625 13.83007812 5.58125 14.92578125 6.0859375 C17.13207355 7.10741713 19.33271632 8.14119372 21.52734375 9.1875 C29.61375608 12.87466992 35.64960904 14.86457902 44.2421875 11.87011719 C47.84222673 10.36842672 51.35695 8.74695764 54.875 7.0625 C57.26546639 5.94320001 59.66022919 4.83341886 62.0546875 3.72265625 C63.62452393 2.97640991 63.62452393 2.97640991 65.22607422 2.21508789 C67.51124382 1.21409431 69.56574729 0.49305478 72 0 C72.14532035 4.56216465 72.23408477 9.12373362 72.3125 13.6875 C72.35439453 14.98107422 72.39628906 16.27464844 72.43945312 17.60742188 C72.45556641 18.85458984 72.47167969 20.10175781 72.48828125 21.38671875 C72.51446533 22.53358154 72.54064941 23.68044434 72.56762695 24.86206055 C71.82473971 28.96886901 70.17583444 30.38739366 67 33 C50.72236864 41.45562864 31.41382737 42.09608595 14 37 C2.09147704 32.24697993 2.09147704 32.24697993 -1 28 C-1.328125 25.64453125 -1.328125 25.64453125 -1.25 22.8125 C-1.22421875 21.76191406 -1.1984375 20.71132812 -1.171875 19.62890625 C-0.86169821 13.07994636 -0.46475217 6.53972701 0 0 Z " fill="#0E69B9" transform="translate(70,107)"/>
<path d="M0 0 C2.31 0.33 4.62 0.66 7 1 C7.66 3.64 8.32 6.28 9 9 C6.40019369 11.13555518 4.39828755 12.7001511 1 13 C-2.25 12.0625 -2.25 12.0625 -5 11 C-5 11.99 -5 12.98 -5 14 C-4.01 13.67 -3.02 13.34 -2 13 C-2 13.66 -2 14.32 -2 15 C-2.66 15 -3.32 15 -4 15 C-4.33 16.65 -4.66 18.3 -5 20 C-7.5 18.75 -7.5 18.75 -10 16 C-10.45551292 11.97005043 -10.28580155 8.03932853 -10 4 C-9.01 4.495 -9.01 4.495 -8 5 C-5.66117862 4.70764733 -3.32716 4.37400786 -1 4 C-0.34 4 0.32 4 1 4 C0.67 2.68 0.34 1.36 0 0 Z " fill="#0D69B9" transform="translate(79,119)"/>
<path d="M0 0 C0.99 0 1.98 0 3 0 C4.82159435 1.96171699 5.86647708 3.44921794 6.5 6.0625 C6.8349763 8.10484544 6.8349763 8.10484544 8.51171875 9.34375 C10.42983015 11.47834116 10.37454091 12.60748014 10.3125 15.4375 C10.30863281 16.19933594 10.30476562 16.96117188 10.30078125 17.74609375 C9.9739386 20.19529127 9.21954601 21.86700917 8 24 C6.68 23.67 5.36 23.34 4 23 C4 22.34 4 21.68 4 21 C3.01 20.67 2.02 20.34 1 20 C0.67 15.71 0.34 11.42 0 7 C0.66 7 1.32 7 2 7 C2 5.68 2 4.36 2 3 C0.68 2.67 -0.64 2.34 -2 2 C-1.34 1.34 -0.68 0.68 0 0 Z " fill="#0C68B8" transform="translate(184,72)"/>
<path d="M0 0 C1.25425781 0.10183594 2.50851563 0.20367188 3.80078125 0.30859375 C5.22970703 0.43427734 5.22970703 0.43427734 6.6875 0.5625 C6.3575 1.8825 6.0275 3.2025 5.6875 4.5625 C7.3375 4.5625 8.9875 4.5625 10.6875 4.5625 C10.3575 5.5525 10.0275 6.5425 9.6875 7.5625 C11.9975 7.8925 14.3075 8.2225 16.6875 8.5625 C16.6875 8.8925 16.6875 9.2225 16.6875 9.5625 C15.56472656 9.62308594 14.44195312 9.68367188 13.28515625 9.74609375 C5.72409035 10.16544982 -1.7963441 10.60589834 -9.3125 11.5625 C-9.6425 10.9025 -9.9725 10.2425 -10.3125 9.5625 C-8.3125 6.5625 -8.3125 6.5625 -5.6875 5.875 C-4.90375 5.771875 -4.12 5.66875 -3.3125 5.5625 C-3.3125 4.9025 -3.3125 4.2425 -3.3125 3.5625 C-3.9725 3.5625 -4.6325 3.5625 -5.3125 3.5625 C-5.3125 2.9025 -5.3125 2.2425 -5.3125 1.5625 C-7.6225 1.5625 -9.9325 1.5625 -12.3125 1.5625 C-12.3125 1.2325 -12.3125 0.9025 -12.3125 0.5625 C-8.06698144 -0.53337955 -4.3532161 -0.36615836 0 0 Z " fill="#196FBB" transform="translate(94.3125,17.4375)"/>
<path d="M0 0 C2.8301913 3.38263104 4.5032781 7.09118459 6.1875 11.125 C6.59645508 12.07439453 6.59645508 12.07439453 7.01367188 13.04296875 C9 17.7324953 9 17.7324953 9 20 C8.01 19.67 7.02 19.34 6 19 C4.76132839 16.38502661 3.91496017 13.74488051 3 11 C1.02 11.99 1.02 11.99 -1 13 C-0.01 13.33 0.98 13.66 2 14 C2 15.32 2 16.64 2 18 C1.34 18 0.68 18 0 18 C0.16757813 18.61488281 0.33515625 19.22976562 0.5078125 19.86328125 C0.71148437 20.67152344 0.91515625 21.47976562 1.125 22.3125 C1.43824219 23.51326172 1.43824219 23.51326172 1.7578125 24.73828125 C2 27 2 27 0 30 C-0.31453125 28.9378125 -0.6290625 27.875625 -0.953125 26.78125 C-3.57368012 17.75460376 -3.57368012 17.75460376 -7.375 9.1875 C-7.91125 8.135625 -8.4475 7.08375 -9 6 C-8.67 5.01 -8.34 4.02 -8 3 C-5.5 5.3125 -5.5 5.3125 -3 8 C-3 8.99 -3 9.98 -3 11 C-2.34 11 -1.68 11 -1 11 C-0.4254048 7.26513121 0 3.78706732 0 0 Z " fill="#206EBB" transform="translate(184,61)"/>
<path d="M0 0 C16.31921679 1.08225172 16.31921679 1.08225172 23 3 C23.33 3.66 23.66 4.32 24 5 C23.67 5.66 23.34 6.32 23 7 C25.31 7 27.62 7 30 7 C27.10758136 9.89241864 25.05317561 9.82466142 21 10 C18.13218861 9.20807859 15.54309869 7.99128736 12.875 6.6875 C11.49759713 6.04514109 10.11999751 5.40320391 8.7421875 4.76171875 C8.10120117 4.45669434 7.46021484 4.15166992 6.79980469 3.83740234 C4.56795222 2.7989794 2.29816027 1.8808124 0 1 C0 0.67 0 0.34 0 0 Z " fill="#216EBA" transform="translate(83,108)"/>
<path d="M0 0 C0.99 0.33 1.98 0.66 3 1 C3 1.66 3 2.32 3 3 C3.66 3 4.32 3 5 3 C5 3.66 5 4.32 5 5 C6.32 5.33 7.64 5.66 9 6 C8.0919838 7.13199353 7.17316174 8.25532363 6.25 9.375 C5.73953125 10.00148438 5.2290625 10.62796875 4.703125 11.2734375 C2.91800519 13.08312318 1.32050356 14.00117455 -1 15 C-0.67 14.01 -0.34 13.02 0 12 C-0.66 12 -1.32 12 -2 12 C-2.24954005 10.56589632 -2.47392642 9.12739928 -2.6875 7.6875 C-2.81511719 6.88699219 -2.94273438 6.08648437 -3.07421875 5.26171875 C-3 3 -3 3 -1.51953125 1.20703125 C-1.01808594 0.80871094 -0.51664063 0.41039062 0 0 Z " fill="#1068B8" transform="translate(44,39)"/>
<path d="M0 0 C2.31 0 4.62 0 7 0 C6.9375 2.8125 6.9375 2.8125 6 6 C3.72555566 7.4926041 1.62038301 8.14242011 -1 9 C-0.67 10.98 -0.34 12.96 0 15 C-0.99 15 -1.98 15 -3 15 C-3.99 15.495 -3.99 15.495 -5 16 C-5.66 15.67 -6.32 15.34 -7 15 C-6.37106494 12.06496971 -5.37599935 9.66026541 -4 7 C-3.90754997 5.53774984 -3.90754997 5.53774984 -6 3 C-4.02 2.34 -2.04 1.68 0 1 C0 0.67 0 0.34 0 0 Z " fill="#106DBB" transform="translate(103,121)"/>
<path d="M0 0 C3.77076545 -0.05899621 7.54140926 -0.09392568 11.3125 -0.125 C12.36501953 -0.14175781 13.41753906 -0.15851562 14.50195312 -0.17578125 C21.55781803 -0.21920196 28.10987473 0.4776333 35 2 C34.34 2.33 33.68 2.66 33 3 C33 3.66 33 4.32 33 5 C32.34 5.66 31.68 6.32 31 7 C31.33 7.66 31.66 8.32 32 9 C30.35 9 28.7 9 27 9 C27 7.35 27 5.7 27 4 C26.34 4 25.68 4 25 4 C25 3.34 25 2.68 25 2 C23.94941406 2.01160156 22.89882812 2.02320313 21.81640625 2.03515625 C14.46073519 2.09119946 7.29940004 2.04277143 0 1 C0 0.67 0 0.34 0 0 Z " fill="#206FBB" transform="translate(93,16)"/>
<path d="M0 0 C0.103125 0.94875 0.20625 1.8975 0.3125 2.875 C0.68539295 6.29107501 0.68539295 6.29107501 4 8 C1.17116253 9.41441874 -0.87376745 9.31900332 -4 9 C-4.474375 8.34 -4.94875 7.68 -5.4375 7 C-5.953125 6.34 -6.46875 5.68 -7 5 C-10.62563814 4.66619186 -10.62563814 4.66619186 -14 5 C-14.33 4.34 -14.66 3.68 -15 3 C-14.67 2.34 -14.34 1.68 -14 1 C-11.6015625 0.5859375 -11.6015625 0.5859375 -8.625 0.375 C-7.15933594 0.26285156 -7.15933594 0.26285156 -5.6640625 0.1484375 C-3.77831835 0.04336671 -1.88866907 0 0 0 Z " fill="#0C68B9" transform="translate(129,185)"/>
<path d="M0 0 C2.29013653 3.4352048 2.17842973 4.985331 2 9 C4.97 9.495 4.97 9.495 8 10 C7.67 11.98 7.34 13.96 7 16 C6.34 15.34 5.68 14.68 5 14 C2.78927023 13.75746187 2.78927023 13.75746187 0.375 13.875 C-0.85089844 13.90207031 -0.85089844 13.90207031 -2.1015625 13.9296875 C-3.04128906 13.96449219 -3.04128906 13.96449219 -4 14 C-3.00956295 9.16371695 -2.04301154 4.52381127 0 0 Z " fill="#1C6FBB" transform="translate(22,69)"/>
<path d="M0 0 C0.125 5.75 0.125 5.75 -1 8 C-1.78375 8.144375 -2.5675 8.28875 -3.375 8.4375 C-6.0431202 8.75286709 -6.0431202 8.75286709 -7.5 10.5625 C-9 12 -9 12 -11.6875 12.1875 C-12.450625 12.125625 -13.21375 12.06375 -14 12 C-14 11.01 -14 10.02 -14 9 C-11.6640625 6.9921875 -11.6640625 6.9921875 -8.625 4.875 C-7.62726562 4.17117187 -6.62953125 3.46734375 -5.6015625 2.7421875 C-1.50672646 0 -1.50672646 0 0 0 Z " fill="#1C6FBB" transform="translate(60,28)"/>
<path d="M0 0 C0.66 0 1.32 0 2 0 C2.28875 0.639375 2.5775 1.27875 2.875 1.9375 C3.82823451 4.15206079 3.82823451 4.15206079 6 5 C6.625 7.0625 6.625 7.0625 7 9 C0.375 10.25 0.375 10.25 -3 8 C-3 7.34 -3 6.68 -3 6 C-4.32 6.33 -5.64 6.66 -7 7 C-7 5.35 -7 3.7 -7 2 C-4.69 2 -2.38 2 0 2 C0 1.34 0 0.68 0 0 Z " fill="#0A68B9" transform="translate(152,30)"/>
<path d="M0 0 C0.99 0.495 0.99 0.495 2 1 C3.67654729 0.72057545 5.34608154 0.39171753 7 0 C7 0.99 7 1.98 7 3 C6.01 2.67 5.02 2.34 4 2 C4.33 2.99 4.66 3.98 5 5 C6.65 5.33 8.3 5.66 10 6 C10 6.33 10 6.66 10 7 C8.35 7 6.7 7 5 7 C5 7.99 5 8.98 5 10 C5.99 9.67 6.98 9.34 8 9 C8 9.66 8 10.32 8 11 C7.34 11 6.68 11 6 11 C5.67 12.65 5.34 14.3 5 16 C2.5 14.75 2.5 14.75 0 12 C-0.45551292 7.97005043 -0.28580155 4.03932853 0 0 Z " fill="#0E6CBB" transform="translate(69,123)"/>
<path d="M0 0 C7.48291572 6.15034169 7.48291572 6.15034169 10 10 C9.01 9.67 8.02 9.34 7 9 C7 10.65 7 12.3 7 14 C7.66 13.67 8.32 13.34 9 13 C8.34 15.31 7.68 17.62 7 20 C4.36792134 17.6185955 2.46862545 15.2464352 1 12 C1.8125 9.3125 1.8125 9.3125 3 7 C3 6.34 3 5.68 3 5 C2.505 4.505 2.01 4.01 1.5 3.5 C1.005 3.005 0.51 2.51 0 2 C0 1.34 0 0.68 0 0 Z " fill="#0A62B5" transform="translate(43,158)"/>
<path d="M0 0 C0 3 0 3 0 3 Z M-8 1 C-6.02 1 -4.04 1 -2 1 C-1.67 2.65 -1.34 4.3 -1 6 C4.28 6.33 9.56 6.66 15 7 C8.71785479 11.18809681 -0.78334365 9.11025482 -8 8 C-8 5.69 -8 3.38 -8 1 Z " fill="#2E76BC" transform="translate(100,138)"/>
<path d="M0 0 C0.33 0 0.66 0 1 0 C1 5.61 1 11.22 1 17 C0.67 17 0.34 17 0 17 C0 13.7 0 10.4 0 7 C-0.66 7 -1.32 7 -2 7 C-2.33 7.99 -2.66 8.98 -3 10 C-3.66 10 -4.32 10 -5 10 C-6.32 10.99 -7.64 11.98 -9 13 C-9 9.7 -9 6.4 -9 3 C-8.34 3 -7.68 3 -7 3 C-7 3.99 -7 4.98 -7 6 C-6.01 6 -5.02 6 -4 6 C-2.61061923 4.03852126 -1.2739589 2.03833424 0 0 Z " fill="#055CB2" transform="translate(24,99)"/>
<path d="M0 0 C0.81210938 0.29003906 1.62421875 0.58007812 2.4609375 0.87890625 C3.27820313 1.16636719 4.09546875 1.45382813 4.9375 1.75 C5.56398438 1.97816406 6.19046875 2.20632812 6.8359375 2.44140625 C6.8359375 3.43140625 6.8359375 4.42140625 6.8359375 5.44140625 C3.5859375 7.06640625 3.5859375 7.06640625 -0.1640625 8.44140625 C-2.6015625 7.62890625 -2.6015625 7.62890625 -4.1640625 6.44140625 C-4.1640625 4.46140625 -4.1640625 2.48140625 -4.1640625 0.44140625 C-2.1640625 -0.55859375 -2.1640625 -0.55859375 0 0 Z " fill="#0B69B8" transform="translate(92.1640625,116.55859375)"/>
<path d="M0 0 C0.99 0.495 0.99 0.495 2 1 C2.40729228 3.32156597 2.74438677 5.6568787 3 8 C3.66 8 4.32 8 5 8 C5 10.33333333 5 12.66666667 5 15 C3.68 15 2.36 15 1 15 C1 17.97 1 20.94 1 24 C0.67 24 0.34 24 0 24 C0 16.08 0 8.16 0 0 Z " fill="#045AB2" transform="translate(70,109)"/>
<path d="M0 0 C3.63 0 7.26 0 11 0 C11 0.66 11 1.32 11 2 C13.31 2.33 15.62 2.66 18 3 C18 4.32 18 5.64 18 7 C18.99 7.33 19.98 7.66 21 8 C21 8.33 21 8.66 21 9 C16.71 9 12.42 9 8 9 C8 8.67 8 8.34 8 8 C9.65 8 11.3 8 13 8 C12.67 7.34 12.34 6.68 12 6 C9.97536745 5.34786708 9.97536745 5.34786708 8 5 C8.33 4.01 8.66 3.02 9 2 C6.03 1.67 3.06 1.34 0 1 C0 0.67 0 0.34 0 0 Z " fill="#065BB4" transform="translate(91,17)"/>
<path d="M0 0 C1.98 0.66 3.96 1.32 6 2 C6 1.34 6 0.68 6 0 C9.875 1.875 9.875 1.875 11 3 C11 2.01 11 1.02 11 0 C11.66 0 12.32 0 13 0 C13 0.99 13 1.98 13 3 C15.31 2.34 17.62 1.68 20 1 C19.375 2.9375 19.375 2.9375 18 5 C13.130938 6.37479398 9.85743291 5.65607435 5.125 4.0625 C3.97257812 3.68222656 2.82015625 3.30195313 1.6328125 2.91015625 C0.32957031 2.45962891 0.32957031 2.45962891 -1 2 C-0.67 1.34 -0.34 0.68 0 0 Z " fill="#226FB9" transform="translate(75,190)"/>
<path d="M0 0 C2.97 0.495 2.97 0.495 6 1 C5.67 2.32 5.34 3.64 5 5 C6.32 4.67 7.64 4.34 9 4 C9 5.32 9 6.64 9 8 C6.09399739 9.25664978 4.20395416 10 1 10 C-1.42857143 3.71428571 -1.42857143 3.71428571 0 0 Z " fill="#0A67B8" transform="translate(27,143)"/>
<path d="M0 0 C0.33 0 0.66 0 1 0 C1.12117188 1.03898437 1.24234375 2.07796875 1.3671875 3.1484375 C2.28416081 10.8384672 3.29098812 18.4367134 5 26 C4.34 26 3.68 26 3 26 C3 25.01 3 24.02 3 23 C2.34 23 1.68 23 1 23 C-2.12411337 15.38497366 -1.15672242 7.95246661 0 0 Z " fill="#2D76BC" transform="translate(25,108)"/>
<path d="M0 0 C0.66 0 1.32 0 2 0 C2 2.97 2 5.94 2 9 C1.67 8.34 1.34 7.68 1 7 C0.34 7 -0.32 7 -1 7 C-1.33 7.66 -1.66 8.32 -2 9 C-2.99 9 -3.98 9 -5 9 C-5.66 10.32 -6.32 11.64 -7 13 C-7.3125 9.8125 -7.3125 9.8125 -7 6 C-4.5 3.0625 -4.5 3.0625 -2 1 C-1.67 1.33 -1.34 1.66 -1 2 C-0.67 1.34 -0.34 0.68 0 0 Z " fill="#156EBB" transform="translate(22,106)"/>
<path d="M0 0 C0 0.66 0 1.32 0 2 C-0.66 2 -1.32 2 -2 2 C-2 2.66 -2 3.32 -2 4 C-1.01 3.67 -0.02 3.34 1 3 C1.33 4.32 1.66 5.64 2 7 C1.34 7 0.68 7 0 7 C-0.33 7.66 -0.66 8.32 -1 9 C1.31 9 3.62 9 6 9 C3 11 3 11 -0.1875 10.625 C-1.5796875 10.315625 -1.5796875 10.315625 -3 10 C-4.125 5.25 -4.125 5.25 -3 3 C-4.03060547 3.25136719 -4.03060547 3.25136719 -5.08203125 3.5078125 C-5.98308594 3.71148437 -6.88414063 3.91515625 -7.8125 4.125 C-8.70582031 4.33382812 -9.59914063 4.54265625 -10.51953125 4.7578125 C-13 5 -13 5 -16 3 C-13.70887834 2.49750857 -11.41708499 1.99807883 -9.125 1.5 C-7.84882812 1.2215625 -6.57265625 0.943125 -5.2578125 0.65625 C-2 0 -2 0 0 0 Z " fill="#2B77BC" transform="translate(132,182)"/>
<path d="M0 0 C3 1 3 1 4 3 C4.99 3.33 5.98 3.66 7 4 C6.6875 6.375 6.6875 6.375 6 9 C5.01 9.66 4.02 10.32 3 11 C1.68 10.34 0.36 9.68 -1 9 C-0.67 6.03 -0.34 3.06 0 0 Z " fill="#0E68B8" transform="translate(176,148)"/>
<path d="M0 0 C0.33 0 0.66 0 1 0 C1 1.98 1 3.96 1 6 C4.0745356 5.2236068 4.0745356 5.2236068 6 3 C6.33 3.66 6.66 4.32 7 5 C7.99 5.33 8.98 5.66 10 6 C9.34 8.97 8.68 11.94 8 15 C7.34 14.34 6.68 13.68 6 13 C6.375 9.875 6.375 9.875 7 7 C5.35 7.33 3.7 7.66 2 8 C1.67 8.99 1.34 9.98 1 11 C-1.78637633 6.8204355 -0.79562512 4.85331323 0 0 Z " fill="#2371BC" transform="translate(184,121)"/>
<path d="M0 0 C3.3 0.99 6.6 1.98 10 3 C9.67 3.66 9.34 4.32 9 5 C9.39938767 7.09821215 9.39938767 7.09821215 10 9 C9.01 9.495 9.01 9.495 8 10 C7.34 8.35 6.68 6.7 6 5 C5.566875 5.495 5.13375 5.99 4.6875 6.5 C3 8 3 8 0 8 C0 5.36 0 2.72 0 0 Z " fill="#1D71BA" transform="translate(71,179)"/>
<path d="M0 0 C0.66 0.33 1.32 0.66 2 1 C2.625 3.5625 2.625 3.5625 3 6 C4.32 6 5.64 6 7 6 C6.52797514 10.24822374 4.03344482 12.19989709 1 15 C0.34 14.67 -0.32 14.34 -1 14 C0.98 11.69 2.96 9.38 5 7 C2.03 7 -0.94 7 -4 7 C-3.04065919 3.16263678 -2.76390737 2.40339772 0 0 Z " fill="#105FB3" transform="translate(168,157)"/>
<path d="M0 0 C0.66 0.33 1.32 0.66 2 1 C1.67 2.32 1.34 3.64 1 5 C1.78375 5.0825 2.5675 5.165 3.375 5.25 C4.24125 5.4975 5.1075 5.745 6 6 C6.66 7.32 7.32 8.64 8 10 C1.07 9.505 1.07 9.505 -6 9 C-6 8.67 -6 8.34 -6 8 C-4.35 8 -2.7 8 -1 8 C-1.66 7.01 -2.32 6.02 -3 5 C-3.33 4.34 -3.66 3.68 -4 3 C-2.68 2.67 -1.36 2.34 0 2 C0 1.34 0 0.68 0 0 Z " fill="#0764B7" transform="translate(126,19)"/>
<path d="M0 0 C0.33 0 0.66 0 1 0 C1 3.3 1 6.6 1 10 C1.99 9.01 2.98 8.02 4 7 C4.99 7 5.98 7 7 7 C8.125 10.75 8.125 10.75 7 13 C4.69 12.67 2.38 12.34 0 12 C0 13.65 0 15.3 0 17 C-0.33 17 -0.66 17 -1 17 C-0.67 11.39 -0.34 5.78 0 0 Z " fill="#085FB5" transform="translate(187,102)"/>
<path d="M0 0 C-0.33 1.32 -0.66 2.64 -1 4 C-0.01 4.33 0.98 4.66 2 5 C2 5.99 2 6.98 2 8 C0.5410574 7.52269162 -0.91713496 7.04308958 -2.375 6.5625 C-3.18710938 6.29566406 -3.99921875 6.02882813 -4.8359375 5.75390625 C-7 5 -7 5 -9 4 C-8 1 -8 1 -6.1875 -0.25 C-3.66056586 -1.11637742 -2.47778006 -0.88492145 0 0 Z " fill="#186BB9" transform="translate(81,100)"/>
<path d="M0 0 C0.99 0 1.98 0 3 0 C3 0.66 3 1.32 3 2 C3.7425 1.938125 4.485 1.87625 5.25 1.8125 C8.47519908 2.03239994 9.69723426 2.78252188 12 5 C12 5.66 12 6.32 12 7 C8.7 7 5.4 7 2 7 C3.32 6.34 4.64 5.68 6 5 C4.35 5 2.7 5 1 5 C1 4.34 1 3.68 1 3 C0.34 2.67 -0.32 2.34 -1 2 C-0.67 1.34 -0.34 0.68 0 0 Z " fill="#075DB6" transform="translate(109,189)"/>
<path d="M0 0 C5.625 -0.25 5.625 -0.25 9 2 C8.67 3.32 8.34 4.64 8 6 C5.69 6.33 3.38 6.66 1 7 C0.67 4.69 0.34 2.38 0 0 Z " fill="#0D63B6" transform="translate(104,64)"/>
<path d="M0 0 C2.97 0.495 2.97 0.495 6 1 C6 2.32 6 3.64 6 5 C5.01 5 4.02 5 3 5 C2.67 5.99 2.34 6.98 2 8 C1.01 8.33 0.02 8.66 -1 9 C-0.67 6.03 -0.34 3.06 0 0 Z " fill="#1A6FBB" transform="translate(17,84)"/>
<path d="M0 0 C0 0.66 0 1.32 0 2 C-0.66 2 -1.32 2 -2 2 C-2 4.31 -2 6.62 -2 9 C-2.99 9.495 -2.99 9.495 -4 10 C-4.66 8.68 -5.32 7.36 -6 6 C-8.31 6 -10.62 6 -13 6 C-10.65890118 4.43926745 -8.43666597 3.13626133 -5.9375 1.875 C-5.24527344 1.52179688 -4.55304688 1.16859375 -3.83984375 0.8046875 C-2 0 -2 0 0 0 Z " fill="#226EBA" transform="translate(142,107)"/>
<path d="M0 0 C5.625 -0.25 5.625 -0.25 9 2 C8.34 3.65 7.68 5.3 7 7 C6.67 6.34 6.34 5.68 6 5 C4.68 5 3.36 5 2 5 C1.34 3.35 0.68 1.7 0 0 Z " fill="#126BB9" transform="translate(169,158)"/>
<path d="M0 0 C0.33 0.66 0.66 1.32 1 2 C1.66 2 2.32 2 3 2 C3.33 1.34 3.66 0.68 4 0 C4.33 0.99 4.66 1.98 5 3 C7.01508358 3.73323796 7.01508358 3.73323796 9 4 C9 4.99 9 5.98 9 7 C8.2575 6.814375 7.515 6.62875 6.75 6.4375 C4.05009037 6.00796892 2.55368923 6.14877026 0 7 C0 4.69 0 2.38 0 0 Z " fill="#0763B5" transform="translate(185,120)"/>
<path d="M0 0 C0.33 0.66 0.66 1.32 1 2 C0.34 2.66 -0.32 3.32 -1 4 C-1.64767793 6.57061311 -1.64767793 6.57061311 -2 9 C-2.66 9 -3.32 9 -4 9 C-4 8.34 -4 7.68 -4 7 C-5.65 7 -7.3 7 -9 7 C-8.67 6.01 -8.34 5.02 -8 4 C-7.34 4 -6.68 4 -6 4 C-6 3.34 -6 2.68 -6 2 C-4.02 1.34 -2.04 0.68 0 0 Z " fill="#0A65B8" transform="translate(126,115)"/>
<path d="M0 0 C-0.33 0.66 -0.66 1.32 -1 2 C-0.34 2.33 0.32 2.66 1 3 C1 3.66 1 4.32 1 5 C1.66 5 2.32 5 3 5 C3 5.66 3 6.32 3 7 C1.51515588 6.60404157 0.0371169 6.18249294 -1.4375 5.75 C-2.26121094 5.51796875 -3.08492188 5.2859375 -3.93359375 5.046875 C-6 4 -6 4 -6.78515625 1.890625 C-6.85605469 1.26671875 -6.92695312 0.6428125 -7 0 C-3.86650268 -1.04449911 -3.01031744 -0.93423645 0 0 Z " fill="#1F6EBA" transform="translate(70,184)"/>
<path d="M0 0 C1.67542976 0.28604898 3.34385343 0.61781233 5 1 C5.33 2.32 5.66 3.64 6 5 C4.02 5.99 2.04 6.98 0 8 C-0.38063221 5.6739143 -0.71269945 3.33944736 -1 1 C-0.67 0.67 -0.34 0.34 0 0 Z " fill="#196DBA" transform="translate(18,124)"/>
<path d="M0 0 C4.10447392 0.51776621 5.95699523 2.64627444 8.75 5.5625 C9.94882813 6.80193359 9.94882813 6.80193359 11.171875 8.06640625 C11.77515625 8.70449219 12.3784375 9.34257813 13 10 C12.34 10.66 11.68 11.32 11 12 C7.43279004 9.32459253 4.58873576 6.64340588 2 3 C2 2.34 2 1.68 2 1 C1.34 0.67 0.68 0.34 0 0 Z " fill="#2D70BD" transform="translate(162,37)"/>
<path d="M0 0 C2.97 0.495 2.97 0.495 6 1 C5.67 1.66 5.34 2.32 5 3 C4.34 3 3.68 3 3 3 C2.67 3.66 2.34 4.32 2 5 C1.67 5.33 1.34 5.66 1 6 C1.66 6.66 2.32 7.32 3 8 C2.67 8.66 2.34 9.32 2 10 C0.68 9.67 -0.64 9.34 -2 9 C-1.34 6.03 -0.68 3.06 0 0 Z " fill="#0B62B6" transform="translate(57,173)"/>
<path d="M0 0 C1.65 0 3.3 0 5 0 C4.67 0.66 4.34 1.32 4 2 C3.34 2 2.68 2 2 2 C2 2.66 2 3.32 2 4 C2.99 4 3.98 4 5 4 C5 5.32 5 6.64 5 8 C5.33 8.66 5.66 9.32 6 10 C5.01 10 4.02 10 3 10 C3 9.34 3 8.68 3 8 C2.34 8 1.68 8 1 8 C1 6.68 1 5.36 1 4 C0.34 4 -0.32 4 -1 4 C-0.67 2.68 -0.34 1.36 0 0 Z " fill="#0A65B6" transform="translate(32,53)"/>
<path d="M0 0 C-0.33 1.98 -0.66 3.96 -1 6 C-1.66 6 -2.32 6 -3 6 C-3 5.01 -3 4.02 -3 3 C-5.64 3 -8.28 3 -11 3 C-4.23255814 -1.51162791 -4.23255814 -1.51162791 0 0 Z " fill="#206FBB" transform="translate(144,179)"/>
<path d="M0 0 C0.66 0 1.32 0 2 0 C2.66 1.65 3.32 3.3 4 5 C3.01 5 2.02 5 1 5 C2.32 6.65 3.64 8.3 5 10 C3.35 10.33 1.7 10.66 0 11 C-1.05404945 7.01803543 -0.84098656 4.01804691 0 0 Z " fill="#0B65B8" transform="translate(158,167)"/>
<path d="M0 0 C-0.33 1.65 -0.66 3.3 -1 5 C-3.97 4.505 -3.97 4.505 -7 4 C-7.66 5.32 -8.32 6.64 -9 8 C-10.32 7.01 -11.64 6.02 -13 5 C-11.21046815 4.16209211 -9.41830305 3.32980604 -7.625 2.5 C-6.62726563 2.0359375 -5.62953125 1.571875 -4.6015625 1.09375 C-2 0 -2 0 0 0 Z " fill="#2470BA" transform="translate(81,74)"/>
<path d="M0 0 C-0.33 1.65 -0.66 3.3 -1 5 C-2.32 4.67 -3.64 4.34 -5 4 C-5.33 4.66 -5.66 5.32 -6 6 C-6.33 5.34 -6.66 4.68 -7 4 C-6.67 3.34 -6.34 2.68 -6 2 C-6.99 1.67 -7.98 1.34 -9 1 C-3.375 -1.125 -3.375 -1.125 0 0 Z " fill="#1D6DB9" transform="translate(82,20)"/>
<path d="M0 0 C0.66 1.32 1.32 2.64 2 4 C-1.3 4 -4.6 4 -8 4 C-7.67 2.68 -7.34 1.36 -7 0 C-4.25509788 -1.37245106 -2.87939419 -0.93580311 0 0 Z " fill="#0761B6" transform="translate(108,193)"/>
<path d="M0 0 C5.94 0.99 5.94 0.99 12 2 C9.68143083 3.54571278 7.49361571 4.79618552 5 6 C5 5.34 5 4.68 5 4 C2.03 3.505 2.03 3.505 -1 3 C-0.67 2.01 -0.34 1.02 0 0 Z " fill="#2872BC" transform="translate(82,183)"/>
<path d="M0 0 C1.67542976 0.28604898 3.34385343 0.61781233 5 1 C5 1.99 5 2.98 5 4 C5.99 4.33 6.98 4.66 8 5 C5.69 5.33 3.38 5.66 1 6 C0.34 4.35 -0.32 2.7 -1 1 C-0.67 0.67 -0.34 0.34 0 0 Z " fill="#1B6FBB" transform="translate(147,92)"/>
<path d="M0 0 C0.81210938 0.29003906 1.62421875 0.58007812 2.4609375 0.87890625 C3.27820313 1.16636719 4.09546875 1.45382813 4.9375 1.75 C5.56398438 1.97816406 6.19046875 2.20632812 6.8359375 2.44140625 C6.8359375 3.43140625 6.8359375 4.42140625 6.8359375 5.44140625 C6.2996875 5.29703125 5.7634375 5.15265625 5.2109375 5.00390625 C2.43677923 4.34686877 -0.34931638 3.88920677 -3.1640625 3.44140625 C-3.4940625 2.45140625 -3.8240625 1.46140625 -4.1640625 0.44140625 C-2.1640625 -0.55859375 -2.1640625 -0.55859375 0 0 Z " fill="#216EBB" transform="translate(92.1640625,116.55859375)"/>
<path d="M0 0 C3 2 3 2 3.6875 4.625 C3.8421875 5.800625 3.8421875 5.800625 4 7 C4.99 6.67 5.98 6.34 7 6 C9.6875 6.4375 9.6875 6.4375 12 7 C10.375 8.625 10.375 8.625 8 10 C4.875 9.5 4.875 9.5 2 8 C0.35469584 5.08332445 0 3.35279018 0 0 Z " fill="#1D6EBC" transform="translate(134,93)"/>
<path d="M0 0 C-0.33 1.32 -0.66 2.64 -1 4 C-4.375 4.125 -4.375 4.125 -8 4 C-8.66 3.34 -9.32 2.68 -10 2 C-3.375 -1.125 -3.375 -1.125 0 0 Z " fill="#246EB9" transform="translate(98,68)"/>
<path d="M0 0 C1.65 0.99 3.3 1.98 5 3 C5.99 2.34 6.98 1.68 8 1 C7.25 6.75 7.25 6.75 5 9 C4.16094435 7.87926138 3.32892169 6.75325453 2.5 5.625 C2.0359375 4.99851562 1.571875 4.37203125 1.09375 3.7265625 C0 2 0 2 0 0 Z " fill="#1C6BBA" transform="translate(166,52)"/>
<path d="M0 0 C6 7.4 6 7.4 6 11 C5.01 11 4.02 11 3 11 C0.84694043 7.14243493 -0.39253254 4.44870215 0 0 Z " fill="#226EB9" transform="translate(38,150)"/>
<path d="M0 0 C0.33 0 0.66 0 1 0 C1.33 3.96 1.66 7.92 2 12 C3.32 11.67 4.64 11.34 6 11 C5.67 12.65 5.34 14.3 5 16 C2.5 14.75 2.5 14.75 0 12 C-0.45551292 7.97005043 -0.28580155 4.03932853 0 0 Z " fill="#568DC6" transform="translate(69,123)"/>
<path d="M0 0 C2.31 0 4.62 0 7 0 C6.67 1.98 6.34 3.96 6 6 C4.68 6.33 3.36 6.66 2 7 C1.34 5.68 0.68 4.36 0 3 C1.32 2.67 2.64 2.34 4 2 C2.68 1.34 1.36 0.68 0 0 Z " fill="#2E7BC0" transform="translate(103,121)"/>
<path d="M0 0 C0 3.6461404 -0.08577934 5.97607286 -2.5625 8.75 C-3.2740625 9.36875 -3.2740625 9.36875 -4 10 C-4.77341204 7.21571665 -5.17574966 5.52724898 -4.25 2.75 C-3 1 -3 1 0 0 Z " fill="#2072BC" transform="translate(44,50)"/>
<path d="M0 0 C0.66 0.33 1.32 0.66 2 1 C1.50769231 7.52307692 1.50769231 7.52307692 -1.0625 9.9375 C-1.701875 10.288125 -2.34125 10.63875 -3 11 C-2.7215625 10.1028125 -2.7215625 10.1028125 -2.4375 9.1875 C-1.77906313 6.83591238 -1.77906313 6.83591238 -3 4 C-2 3 -2 3 0 2 C0 1.34 0 0.68 0 0 Z " fill="#0A68B8" transform="translate(192,99)"/>
<path d="M0 0 C0 0.66 0 1.32 0 2 C0.66 2.33 1.32 2.66 2 3 C1.67 4.32 1.34 5.64 1 7 C1.66 7.33 2.32 7.66 3 8 C1.35 7.67 -0.3 7.34 -2 7 C-1.67 5.35 -1.34 3.7 -1 2 C-2.98 2.33 -4.96 2.66 -7 3 C-2.5 0 -2.5 0 0 0 Z " fill="#2071BD" transform="translate(104,64)"/>
<path d="M0 0 C2.475 0.99 2.475 0.99 5 2 C4.34 3.32 3.68 4.64 3 6 C1.35 5.67 -0.3 5.34 -2 5 C-2.33 4.01 -2.66 3.02 -3 2 C-2.01 2 -1.02 2 0 2 C0 1.34 0 0.68 0 0 Z " fill="#1C71BD" transform="translate(149,27)"/>
<path d="M0 0 C1.32 0.66 2.64 1.32 4 2 C3.34 2 2.68 2 2 2 C2 2.66 2 3.32 2 4 C3.98 4 5.96 4 8 4 C8 4.33 8 4.66 8 5 C3.38 5.33 -1.24 5.66 -6 6 C-6 5.67 -6 5.34 -6 5 C-4.35 4.67 -2.7 4.34 -1 4 C-0.67 2.68 -0.34 1.36 0 0 Z " fill="#2074BB" transform="translate(99,191)"/>
<path d="M0 0 C0.99 0.66 1.98 1.32 3 2 C3.99 2.33 4.98 2.66 6 3 C6 3.66 6 4.32 6 5 C6.99 5.33 7.98 5.66 9 6 C2.07 5.505 2.07 5.505 -5 5 C-5 4.67 -5 4.34 -5 4 C-3.35 4 -1.7 4 0 4 C0 2.68 0 1.36 0 0 Z " fill="#2075BE" transform="translate(111,140)"/>
<path d="M0 0 C0.66 0 1.32 0 2 0 C2 1.98 2 3.96 2 6 C3.65 6 5.3 6 7 6 C6.34 7.32 5.68 8.64 5 10 C4.01 10 3.02 10 2 10 C2.33 9.34 2.66 8.68 3 8 C2.34 8 1.68 8 1 8 C0.67 5.36 0.34 2.72 0 0 Z " fill="#0E60B5" transform="translate(41,43)"/>
<path d="M0 0 C1.32 1.32 2.64 2.64 4 4 C2.6875 5.5 2.6875 5.5 1 7 C0.01 7 -0.98 7 -2 7 C-2 5.35 -2 3.7 -2 2 C-1.34 2 -0.68 2 0 2 C0 1.34 0 0.68 0 0 Z " fill="#1A6FBD" transform="translate(127,137)"/>
<path d="M0 0 C0.99 0.33 1.98 0.66 3 1 C2.34 2.32 1.68 3.64 1 5 C-1 5 -3 5 -5 5 C-3.35 3.35 -1.7 1.7 0 0 Z " fill="#256FBD" transform="translate(156,168)"/>
<path d="M0 0 C3.96 0.33 7.92 0.66 12 1 C11.67 2.32 11.34 3.64 11 5 C7.27566618 3.7874262 3.62197194 2.49140021 0 1 C0 0.67 0 0.34 0 0 Z " fill="#2D70BA" transform="translate(83,108)"/>
<path d="M0 0 C3.63 0 7.26 0 11 0 C11.33 0.99 11.66 1.98 12 3 C7.18550592 2.51855059 4.39828259 2.1991413 0 0 Z " fill="#246EBC" transform="translate(122,28)"/>
<path d="M0 0 C0.99 0 1.98 0 3 0 C3 0.66 3 1.32 3 2 C3.99 2 4.98 2 6 2 C6 2.66 6 3.32 6 4 C4.35 4.33 2.7 4.66 1 5 C1 4.34 1 3.68 1 3 C0.34 2.67 -0.32 2.34 -1 2 C-0.67 1.34 -0.34 0.68 0 0 Z " fill="#0C68B5" transform="translate(109,189)"/>
<path d="M0 0 C0.99 0 1.98 0 3 0 C2.67 1.65 2.34 3.3 2 5 C-0.31 5 -2.62 5 -5 5 C-4.34 4.34 -3.68 3.68 -3 3 C-2.01 3 -1.02 3 0 3 C0 2.01 0 1.02 0 0 Z " fill="#0A61B2" transform="translate(96,191)"/>
<path d="M0 0 C0.93423645 3.01031744 1.04449911 3.86650268 0 7 C-0.99 7 -1.98 7 -3 7 C-3.33 5.35 -3.66 3.7 -4 2 C-2.68 1.34 -1.36 0.68 0 0 Z " fill="#1F72BC" transform="translate(148,174)"/>
<path d="M0 0 C0.66 0 1.32 0 2 0 C2.66 1.98 3.32 3.96 4 6 C2.68 6.33 1.36 6.66 0 7 C-1.125 2.25 -1.125 2.25 0 0 Z " fill="#2672BC" transform="translate(32,141)"/>
<path d="M0 0 C2.97 0.99 5.94 1.98 9 3 C5 5 5 5 2.75 4.625 C2.1725 4.41875 1.595 4.2125 1 4 C0.67 2.68 0.34 1.36 0 0 Z " fill="#2671BB" transform="translate(124,71)"/>
<path d="M0 0 C3.48331435 3.01887244 4.79157144 5.56909529 6 10 C5.01 10.495 5.01 10.495 4 11 C3.32591692 9.73308493 2.66099503 8.46129251 2 7.1875 C1.62875 6.47980469 1.2575 5.77210937 0.875 5.04296875 C0 3 0 3 0 0 Z " fill="#3170B9" transform="translate(175,64)"/>
<path d="M0 0 C0.33 0.66 0.66 1.32 1 2 C1.66 2 2.32 2 3 2 C2.67 2.99 2.34 3.98 2 5 C1.34 4.67 0.68 4.34 0 4 C0 4.66 0 5.32 0 6 C0.66 6 1.32 6 2 6 C1.67 6.66 1.34 7.32 1 8 C-0.32 7.01 -1.64 6.02 -3 5 C-2.01 3.35 -1.02 1.7 0 0 Z " fill="#2170BD" transform="translate(30,55)"/>
<path d="M0 0 C3.79588866 0.54226981 5.47211993 2.20127563 8 5 C6.35 4.67 4.7 4.34 3 4 C2.67 4.66 2.34 5.32 2 6 C1.34 4.02 0.68 2.04 0 0 Z " fill="#286FBA" transform="translate(52,168)"/>
<path d="M0 0 C1.65 0 3.3 0 5 0 C4.34 2.31 3.68 4.62 3 7 C0.64046906 4.64046906 0.50858587 3.22104383 0 0 Z " fill="#1C6BBA" transform="translate(186,137)"/>
<path d="M0 0 C3.63 0.66 7.26 1.32 11 2 C11 2.33 11 2.66 11 3 C7.37 3.33 3.74 3.66 0 4 C0 2.68 0 1.36 0 0 Z " fill="#0B57B4" transform="translate(98,120)"/>
<path d="M0 0 C2.31 0.33 4.62 0.66 7 1 C6.01 1.33 5.02 1.66 4 2 C3.67 2.99 3.34 3.98 3 5 C2.34 5 1.68 5 1 5 C0.67 3.35 0.34 1.7 0 0 Z " fill="#2471BE" transform="translate(83,114)"/>
<path d="M0 0 C0 0.66 0 1.32 0 2 C0.66 2 1.32 2 2 2 C2 3.65 2 5.3 2 7 C0 5.625 0 5.625 -2 4 C-2 3.34 -2 2.68 -2 2 C-2.66 1.67 -3.32 1.34 -4 1 C-2 0 -2 0 0 0 Z " fill="#196DBA" transform="translate(68,80)"/>
<path d="M0 0 C1.32 0.66 2.64 1.32 4 2 C2.68 2.33 1.36 2.66 0 3 C0 3.66 0 4.32 0 5 C-1.98 5.99 -1.98 5.99 -4 7 C-4.66 6.01 -5.32 5.02 -6 4 C-4.35 4 -2.7 4 -1 4 C-0.67 2.68 -0.34 1.36 0 0 Z " fill="#2374BD" transform="translate(113,66)"/>
<path d="M0 0 C2.475 0.495 2.475 0.495 5 1 C5 1.66 5 2.32 5 3 C5.66 3 6.32 3 7 3 C6.67 3.99 6.34 4.98 6 6 C4.68 5.67 3.36 5.34 2 5 C2.33 4.34 2.66 3.68 3 3 C2.01 2.01 1.02 1.02 0 0 Z " fill="#1E73BF" transform="translate(155,41)"/>
<path d="M0 0 C6.75 0.875 6.75 0.875 9 2 C9 2.66 9 3.32 9 4 C4.545 3.01 4.545 3.01 0 2 C0 1.34 0 0.68 0 0 Z " fill="#2E6CBA" transform="translate(81,141)"/>
<path d="M0 0 C0.33 0.66 0.66 1.32 1 2 C1.66 2.33 2.32 2.66 3 3 C0.625 4.0625 0.625 4.0625 -2 5 C-2.66 4.67 -3.32 4.34 -4 4 C-3.67 3.01 -3.34 2.02 -3 1 C-2.01 0.67 -1.02 0.34 0 0 Z " fill="#226FBC" transform="translate(76,100)"/>
<path d="M0 0 C0.99 0.33 1.98 0.66 3 1 C3 2.65 3 4.3 3 6 C2.01 6.495 2.01 6.495 1 7 C-0.32 6.01 -1.64 5.02 -3 4 C-2.01 3.34 -1.02 2.68 0 2 C0 1.34 0 0.68 0 0 Z " fill="#1E71BA" transform="translate(143,30)"/>
<path d="M0 0 C0 1.65 0 3.3 0 5 C-2.66666667 4.33333333 -5.33333333 3.66666667 -8 3 C-2.25 0 -2.25 0 0 0 Z " fill="#2F72BB" transform="translate(68,24)"/>
<path d="M0 0 C2.64 0 5.28 0 8 0 C8 0.66 8 1.32 8 2 C8.66 2 9.32 2 10 2 C9.67 2.66 9.34 3.32 9 4 C5.17902761 3.46930939 2.93828597 2.50298434 0 0 Z " fill="#0761B6" transform="translate(81,19)"/>
<path d="M0 0 C0.66 0 1.32 0 2 0 C3.125 3.3125 3.125 3.3125 4 7 C3.01 8.485 3.01 8.485 2 10 C1.34 6.7 0.68 3.4 0 0 Z " fill="#3B79BE" transform="translate(182,81)"/>
<path d="M0 0 C2.31 0.66 4.62 1.32 7 2 C7 2.33 7 2.66 7 3 C5.35 3 3.7 3 2 3 C2 3.66 2 4.32 2 5 C1.34 5 0.68 5 0 5 C0 3.35 0 1.7 0 0 Z " fill="#1F6AB8" transform="translate(137,77)"/>
<path d="M0 0 C0.99 0.495 0.99 0.495 2 1 C2 1.66 2 2.32 2 3 C2.99 3 3.98 3 5 3 C4.67 4.32 4.34 5.64 4 7 C3.01 6.67 2.02 6.34 1 6 C0.67 4.02 0.34 2.04 0 0 Z " fill="#1662B9" transform="translate(180,74)"/>
<path d="M0 0 C2.64 0.33 5.28 0.66 8 1 C6 3 6 3 2.875 3.125 C1.451875 3.063125 1.451875 3.063125 0 3 C0 2.01 0 1.02 0 0 Z " fill="#105FB5" transform="translate(125,191)"/>
<path d="M0 0 C1.4606285 2.64738916 2 3.89448334 2 7 C0.68 6.01 -0.64 5.02 -2 4 C-1 1 -1 1 0 0 Z " fill="#2A71BC" transform="translate(38,162)"/>
<path d="M0 0 C0.99 0.99 1.98 1.98 3 3 C2.67 3.99 2.34 4.98 2 6 C2.99 6.33 3.98 6.66 5 7 C3.35 7 1.7 7 0 7 C-1.125 2.25 -1.125 2.25 0 0 Z " fill="#095BB3" transform="translate(90,138)"/>
<path d="M0 0 C0.66 0.66 1.32 1.32 2 2 C1.625 4.125 1.625 4.125 1 6 C1 5.34 1 4.68 1 4 C-0.65 4.33 -2.3 4.66 -4 5 C-2.68 3.35 -1.36 1.7 0 0 Z " fill="#2972BA" transform="translate(40,43)"/>
<path d="M0 0 C3.465 1.98 3.465 1.98 7 4 C7 4.33 7 4.66 7 5 C5.02 5 3.04 5 1 5 C0.67 3.35 0.34 1.7 0 0 Z " fill="#3277C0" transform="translate(154,30)"/>
</svg>
